# xmcd
#
# Track frame offsets:
# 150
# 25967
# 79843
# 104690
# 129323
# 148980
# 174438
# 197224
# 217077
# 237974
# 240383
# 264593
# 283516
# 301735
# 326621
#
# Disc length: 4670 seconds
#
# Revision: 1
# Processed by: cddbd v1.5.1PL2 Copyright (c) Steve Scherf et al.
# Submitted via: CedeCatalogueitor 2.6.0.6 http://personales.ya.com/cdcatalogueitor
#
DISCID=db123c0f
DTITLE=Edguy - Hellfire Club 
DYEAR=2004
DGENRE=Power Metal
TTITLE0=Mysteria
TTITLE1=The Piper Never Dies
TTITLE2=We Don`t Need A Hero
TTITLE3=Down To The Devil
TTITLE4=King Of Fools
TTITLE5=Forever
TTITLE6=Under The Moon
TTITLE7=Lavatory Love Machine
TTITLE8=Rise Of The Morning Glory
TTITLE9=Lucifer In Love
TTITLE10=Navigator
TTITLE11=The Spirit Will Remain
TTITLE12=Bonus Japan
TTITLE13=Bonus Japan
TTITLE14=Bonus Japan
EXTD=
EXTT0=
EXTT1=
EXTT2=
EXTT3=
EXTT4=
EXTT5=
EXTT6=
EXTT7=
EXTT8=
EXTT9=
EXTT10=
EXTT11=
EXTT12=
EXTT13=
EXTT14=
PLAYORDER=
